<svg xmlns="http://www.w3.org/2000/svg" xmlns:xlink="http://www.w3.org/1999/xlink"><defs><symbol class="icon icon-tabler icon-tabler-mail" stroke-width="2" stroke="currentColor" fill="none" stroke-linecap="round" stroke-linejoin="round" viewBox="0 0 24 24" id="email"><path d="M0 0h24v24H0z" stroke="none" /><rect x="3" y="5" width="18" height="14" rx="2" /><path d="M3 7l9 6 9-6" /></symbol><symbol class="icon icon-tabler icon-tabler-brand-github" stroke-width="2" stroke="currentColor" fill="none" stroke-linecap="round" stroke-linejoin="round" viewBox="0 0 24 24" id="github"><path d="M0 0h24v24H0z" stroke="none" /><path d="M9 19c-4.3 1.4-4.3-2.5-6-3m12 5v-3.5c0-1 .1-1.4-.5-2 2.8-.3 5.5-1.4 5.5-6a4.6 4.6 0 00-1.3-3.2 4.2 4.2 0 00-.1-3.2s-1.1-.3-3.5 1.3a12.3 12.3 0 00-6.2 0C6.5 2.8 5.4 3.1 5.4 3.1a4.2 4.2 0 00-.1 3.2A4.6 4.6 0 004 9.5c0 4.6 2.7 5.7 5.5 6-.6.6-.6 1.2-.5 2V21" /></symbol><symbol class="icon icon-tabler icon-tabler-brand-linkedin" stroke-width="2" stroke="currentColor" fill="none" stroke-linecap="round" stroke-linejoin="round" viewBox="0 0 24 24" id="linkedin"><path d="M0 0h24v24H0z" stroke="none" /><rect x="4" y="4" width="16" height="16" rx="2" /><path d="M8 11v5M8 8v.01M12 16v-5M16 16v-3a2 2 0 00-4 0" /></symbol><symbol class="icon icon-tabler icon-tabler-map-pin" stroke-width="2" stroke="currentColor" fill="none" stroke-linecap="round" stroke-linejoin="round" viewBox="0 0 24 24" id="location"><path d="M0 0h24v24H0z" stroke="none" /><circle cx="12" cy="11" r="3" /><path d="M17.657 16.657L13.414 20.9a2 2 0 01-2.827 0l-4.244-4.243a8 8 0 1111.314 0z" /></symbol><symbol class="icon icon-tabler icon-tabler-device-mobile" stroke-width="2" stroke="currentColor" fill="none" stroke-linecap="round" stroke-linejoin="round" viewBox="0 0 24 24" id="phone"><path d="M0 0h24v24H0z" stroke="none" /><rect x="7" y="4" width="10" height="16" rx="1" /><path d="M11 5h2M12 17v.01" /></symbol></defs></svg>